<?xml version="1.0" encoding="UTF-8"?>
<svg id="Layer_1" data-name="Layer 1" xmlns="http://www.w3.org/2000/svg" viewBox="0 0 1600 700">
  <defs>
    <style>
      .cls-1 {
        fill: #7baece;
        opacity: .23;
        stroke-width: 0px;
      }
    </style>
  </defs>
  <path class="cls-1" d="M948.27,426.32v-194.38c35.35-.1,70.71-.3,106.06-.18,5.17.02,7.39-1.61,9.18-6.51,4.23-11.63,9.05-23.07,14.26-34.3,2.18-4.69,1.76-7.51-1.92-11.14-23.07-22.73-45.91-45.71-68.81-68.61-2.01-2.01-3.93-4.12-5.34-5.6,46.24-46.23,91.82-91.81,138.95-138.93,1.37,1.96,2.75,4.72,4.82,6.8,22.64,22.79,45.49,45.37,67.99,68.28,3.92,4,6.86,4.35,11.83,2,10.95-5.17,22.14-9.9,33.54-13.97,5.23-1.87,6.93-4.18,6.88-9.71-.28-32.12-.14-64.23-.14-96.35v-8.85h194.91c0,3.29,0,6.19,0,9.1,0,32.12.11,64.24-.12,96.35-.04,5.1,1.42,7.45,6.37,9.25,11.63,4.23,23.13,8.93,34.3,14.25,5.14,2.45,7.96,1.6,11.75-2.26,22.54-22.89,45.39-45.46,67.99-68.29,2.03-2.05,2.99-5.16,3.55-6.16,47.72,47.71,93.41,93.39,140.16,140.13-1.26.92-3.68,2.28-5.58,4.17-22.58,22.46-44.96,45.13-67.71,67.42-4.33,4.25-5.29,7.41-2.49,13.08,5.11,10.37,9.74,21.07,13.35,32.04,2.12,6.43,5.22,7.9,11.52,7.84,31.58-.32,63.17-.15,94.75-.15h8.85v194.97c-35.42,0-70.23.14-105.03-.14-5.55-.04-7.84,1.71-9.72,6.89-4.21,11.63-9.09,23.05-14.28,34.29-2.04,4.42-1.68,7.05,1.8,10.46,16.78,16.42,33.28,33.13,49.9,49.73,8.38,8.36,16.78,16.7,24.24,24.11-46.29,46.28-92.01,91.99-138.98,138.95-1.19-1.63-2.66-4.32-4.74-6.41-22.65-22.78-45.48-45.37-68.02-68.25-3.67-3.72-6.47-4.05-11.13-1.86-10.71,5.03-21.62,9.79-32.78,13.7-6.01,2.1-8.21,4.63-8.15,11.29.33,34.81.03,69.62-.06,104.43h-194.42c-.08-35.33-.27-70.66-.14-105.99.02-5.1-1.45-7.44-6.43-9.23-11.39-4.08-22.62-8.71-33.55-13.88-5.21-2.47-8.33-2.2-12.48,2.03-22.48,22.92-45.29,45.5-68,68.19-2.04,2.04-4.16,3.99-5.13,4.91-46.23-46.22-91.91-91.9-138.44-138.42,1.71-1.45,4.33-3.38,6.61-5.65,22.36-22.27,44.56-44.72,67.09-66.81,4.22-4.13,4.57-7.27,2.06-12.48-5.02-10.41-9.67-21.08-13.38-32.01-2.1-6.19-4.86-8.08-11.37-8.03-34.79.27-69.59-.02-104.39-.12ZM1362.82,548.68c120.66.34,219.16-97.89,219.76-219.16.59-120.54-97.35-218.92-218.96-219.94-120.5-1.01-220.14,98.36-220.16,219.54-.01,120.86,98.26,219.22,219.36,219.56Z"/>
  <path class="cls-1" d="M1363.36,158.53c94.58.27,170.87,77.03,170.29,171.34-.58,94.34-76.89,170.15-170.96,169.87-94.54-.28-170.87-77.08-170.31-171.35.57-94.31,76.88-170.12,170.97-169.86ZM1341.22,220.63c-22.28,44.58-44.05,88.12-66.49,133h97.48c-10.67,21.45-20.7,41.59-30.94,62.17,14.85,7.4,29.01,14.47,43.6,21.75,22.18-44.37,44.05-88.13,66.45-132.96h-97.46c10.53-21.16,20.55-41.3,30.92-62.14-14.62-7.32-28.75-14.39-43.57-21.81Z"/>
</svg>