<?xml version="1.0" encoding="UTF-8"?>
<svg id="Layer_1" data-name="Layer 1" xmlns="http://www.w3.org/2000/svg" viewBox="0 0 200 200">
  <defs>
    <style>
      .cls-1 {
        fill-rule: evenodd;
      }

      .cls-1, .cls-2 {
        fill: #fff;
        stroke-width: 0px;
      }

      .cls-3 {
        fill: none;
        stroke: #fff;
        stroke-miterlimit: 10;
        stroke-width: 3px;
      }
    </style>
  </defs>
  <path class="cls-1" d="M198.18,37.82c-3.63-1.51-6.66-2.12-9.69-3.03-.61,0-1.21,0-1.82-.3v-10.3c0-1.21-.91-2.42-2.12-2.73-10-3.63-20.9-5.45-31.5-5.45-20.3,0-39.98,6.97-53.62,18.78-14.24-11.81-33.62-18.78-53.31-18.78-10.91,0-21.2,1.82-31.5,5.45-1.21.3-2.12,1.51-2.12,2.73v10.3c-.61,0-1.21.3-1.82.3-3.03.61-6.36,1.51-9.69,3.03-1.21.3-1.82,1.51-1.82,2.73v113.6c0,.91.3,1.82,1.21,2.42.61.61,1.82.61,2.73.3,10.3-3.94,21.51-5.76,33.93-5.76,23.32,0,45.13,8.18,59.98,22.42.61.61,1.51.91,2.12.91,3.09,0,28.94-23.32,63.01-23.32,12.42,0,23.63,1.82,33.93,5.76.91.3,1.82.3,2.73-.3.61-.61,1.21-1.51,1.21-2.42V40.55c0-1.21-.61-2.12-1.82-2.73h-.02ZM18.25,26.31c8.78-3.03,17.87-4.54,27.26-4.54,18.78,0,37.26,6.66,50.59,18.18v2.91c0,.75.61,1.35,1.35,1.35h3.35c.75,0,1.35-.61,1.35-1.35v-2.91c12.72-11.51,31.2-18.18,50.59-18.18,9.09,0,18.48,1.51,27.26,4.54v107.84c-8.79-2.73-18.18-4.24-27.26-4.24-19.39,0-37.26,5.75-50.59,16.36v-78.61h-6.06v78.61c-13.63-10.6-31.5-16.36-50.59-16.36-9.39,0-18.17,1.51-27.26,4.24V26.31h0ZM193.34,149.9c-10-3.33-20.6-4.85-32.11-4.85-24.23,0-45.67,7.55-61.73,21.78-15.75-14.24-38.54-21.78-62.47-21.78-11.51,0-22.11,1.51-32.11,4.85V42.67c2.42-.91,4.54-1.51,6.97-2.12h.3v97.84c0,.91.3,1.82,1.21,2.42.91.61,1.82.61,2.73.3,9.69-3.33,19.39-5.15,29.38-5.15,29.63,0,51.08,19.99,53.31,19.99h.61c2.34,0,23.11-19.99,53.31-19.99,10,0,19.99,1.82,29.38,5.15.91.3,1.82.3,2.73-.3.61-.61,1.21-1.51,1.21-2.42V40.55h.3c2.42.61,4.54,1.21,6.97,2.12v107.23h0Z"/>
  <circle class="cls-3" cx="99.13" cy="61.49" r="6.7"/>
  <circle class="cls-3" cx="119.5" cy="78.06" r="6.7"/>
  <rect class="cls-2" x="104.71" y="111.22" width="6.06" height="33.76"/>
  <rect class="cls-2" x="116.47" y="84.76" width="6.06" height="17.19"/>
  <rect class="cls-2" x="104.05" y="103.56" width="19.13" height="6.06" transform="translate(-42.09 111.56) rotate(-45)"/>
  <circle class="cls-3" cx="78.8" cy="78.1" r="6.7"/>
  <rect class="cls-2" x="87.53" y="111.23" width="6.06" height="33.76"/>
  <rect class="cls-2" x="75.77" y="84.81" width="6.06" height="17.19"/>
  <rect class="cls-2" x="81.64" y="97.06" width="6.06" height="19.13" transform="translate(-50.6 91.1) rotate(-45)"/>
</svg>